Coordinates
version=1
nRows=9
nColumns=36
inDegrees=yes

Units are S.I. units (second, meters, Newtons, ...)
If the header above contains a line with 'inDegrees', this indicates whether rotational values are in degrees (yes) or radians (no).

endheader
time	pelvis_tilt	pelvis_list	pelvis_rotation	pelvis_tx	pelvis_ty	pelvis_tz	hip_flexion_r	hip_adduction_r	hip_rotation_r	knee_angle_r	knee_angle_r_beta	ankle_angle_r	subtalar_angle_r	mtp_angle_r	hip_flexion_l	hip_adduction_l	hip_rotation_l	knee_angle_l	knee_angle_l_beta	ankle_angle_l	subtalar_angle_l	mtp_angle_l	lumbar_extension	lumbar_bending	lumbar_rotation	arm_flex_r	arm_add_r	arm_rot_r	elbow_flex_r	pro_sup_r	arm_flex_l	arm_add_l	arm_rot_l	elbow_flex_l	pro_sup_l
      4.53333330	     -8.30421206	      0.65201509	      1.86182122	      0.46262591	      0.82612875	     -0.13187693	     32.46646597	     -5.56253575	      3.18231225	     53.01770040	      0.92533343	     16.62074250	    -26.02519483	     -7.49999987	     37.77241052	     -4.27165373	      1.38413870	     53.13683125	      0.92741266	      5.32706889	    -30.60388685	     -7.49999987	    -12.78506546	      2.56249629	     -1.38977713	     -4.47364261	    -11.82323330	      8.81085524	    126.46850414	     85.11328064	     -5.14874330	    -12.02736198	     -0.97684843	    123.45853141	     80.31131409
      4.53750000	     -8.55067091	      0.58529407	      1.87787883	      0.46339592	      0.82968567	     -0.13142234	     32.18066829	     -5.50384200	      2.94808827	     52.07653577	      0.90890701	     16.40870020	    -25.82224075	     -7.49999987	     37.38257151	     -4.47256253	      1.18257988	     52.07789340	      0.90893071	      5.08955223	    -30.26075515	     -7.49999987	    -12.16696173	      2.44737395	     -1.61066371	     -4.51635598	    -11.65962806	      9.03307577	    126.55376050	     85.66730003	     -5.35560977	    -12.06766300	     -0.82665580	    123.86612375	     81.07421182
      4.54166670	     -8.86807913	      0.59178842	      1.89292354	      0.46603770	      0.83138667	     -0.13291219	     31.86173250	     -5.56802509	      2.73149001	     51.03993189	      0.89081486	     15.54662542	    -26.38977522	     -7.49999987	     36.98487424	     -4.37907635	      1.18848059	     51.00116852	      0.89013831	      4.84338767	    -30.05173579	     -7.49999987	    -11.17070676	      2.47597922	     -1.73894267	     -4.66523404	    -11.47585806	      8.60626058	    126.38567664	     89.36405121	     -5.44784264	    -12.19505275	     -0.85905730	    123.54226166	     82.74182433
      4.54583330	     -9.19756876	      0.59322116	      1.88198887	      0.46744138	      0.83254543	     -0.13075718	     31.68762898	     -5.57908950	      2.47259720	     50.24530458	      0.87694600	     15.43341689	    -26.46306752	     -7.49999987	     36.74768748	     -4.39539559	      1.15550852	     50.17772499	      0.87576651	      4.60218339	    -29.97677744	     -7.49999987	    -10.24891220	      2.43137057	     -1.87786340	     -4.65865255	    -11.45969108	      8.67531023	    126.52360246	     88.84836559	     -5.52367094	    -12.47956532	     -0.59012016	    123.62873868	     82.36565278
      4.55000000	     -9.45710981	      0.59902168	      1.75550487	      0.46702353	      0.84036988	     -0.13056826	     31.32003265	     -5.54763095	      2.28157092	     48.93156215	      0.85401687	     15.15551167	    -26.26252028	     -7.49999987	     36.24871137	     -4.38852585	      1.04125127	     48.92196676	      0.85384940	      4.26934660	    -29.60227265	     -7.49999987	     -9.57476688	      2.43027618	     -2.07342098	     -4.80444461	    -11.35450304	      8.65784970	    126.47696211	     88.82461875	     -5.59907946	    -12.70669526	     -0.60599752	    123.37549981	     82.33952515
      4.55416670	     -9.64274437	      0.55905491	      1.62632029	      0.46948660	      0.83992413	     -0.12957658	     31.00146432	     -5.47713196	      2.03746697	     48.04400546	      0.83852608	     14.97764605	    -26.10314788	     -7.49999987	     35.75362819	     -4.52060719	      0.94807220	     47.91513584	      0.83627688	      3.94641524	    -29.36250058	     -7.49999987	     -9.06560923	      2.47183898	     -2.25350887	     -4.91648529	    -11.19823644	      8.70840591	    126.69088213	     87.86301557	     -5.65986011	    -12.92644557	     -0.39138847	    123.51287777	     81.59566773
      4.55833330	     -9.89334674	      0.52312089	      1.55665432	      0.47136434	      0.84335812	     -0.13007847	     30.65413406	     -5.46630411	      1.82662022	     46.94678396	      0.81937595	     14.24093712	    -26.18768419	     -7.49999987	     35.29687596	     -4.60260649	      0.88372183	     46.79031920	      0.81664513	      3.29105674	    -29.41013580	     -7.49999987	     -8.36124801	      2.48227618	     -2.30021989	     -5.02987814	    -10.95150235	      8.71594819	    126.58086826	     86.80544442	     -5.52220064	    -13.12560687	     -0.24164203	    123.34490858	     80.67827736
      4.56250000	     -9.95377651	      0.49877221	      1.55197955	      0.47243574	      0.84868328	     -0.13004030	     29.96561351	     -5.50971534	      1.46420573	     45.69809633	      0.79758224	     13.85133072	    -25.69745000	     -7.49999987	     34.48527456	     -4.60481858	      0.82709225	     45.38862387	      0.79218093	      2.94443123	    -29.08376956	     -7.49999987	     -7.95919655	      2.57329149	     -2.48467732	     -5.16374137	    -10.77564065	      8.86895635	    126.64333485	     85.73130688	     -5.51944163	    -13.34991526	     -0.07186781	    123.45925735	     79.95812577
      4.56666670	    -10.01151157	      0.47392036	      1.51760097	      0.47288801	      0.85210298	     -0.12805077	     29.25671765	     -5.42493215	      1.26200425	     44.38985239	      0.77474908	     13.05129027	    -25.79108967	     -7.49999987	     33.62682525	     -4.74466542	      0.62871177	     43.82637011	      0.76491446	      2.42080790	    -28.90966625	     -7.49999987	     -7.51963301	      2.58146585	     -2.54891024	     -5.31917952	    -10.44443374	      8.87977094	    126.31228291	     85.25496669	     -5.38497802	    -13.38175847	      0.22223265	    123.15401957	     79.55966076
